<?xml version="1.0" standalone="no"?>
<!DOCTYPE svg PUBLIC "-//W3C//DTD SVG 20010904//EN"
 "http://www.w3.org/TR/2001/REC-SVG-20010904/DTD/svg10.dtd">
<svg version="1.0" xmlns="http://www.w3.org/2000/svg"
 width="700.000000pt" height="700.000000pt" viewBox="0 0 700.000000 700.000000"
 preserveAspectRatio="xMidYMid meet">
<metadata>
Created by potrace 1.14, written by Peter Selinger 2001-2017
</metadata>
<g transform="translate(0.000000,700.000000) scale(0.100000,-0.100000)"
fill="#000000" stroke="none">
<path d="M3278 6996 c-1 -2 -42 -6 -89 -10 -47 -4 -95 -8 -105 -10 -10 -2 -45
-7 -78 -11 -160 -19 -429 -82 -606 -142 -233 -79 -534 -216 -695 -317 -66 -42
-260 -170 -274 -182 -9 -7 -61 -48 -116 -91 -464 -367 -842 -875 -1065 -1434
-66 -165 -142 -408 -165 -530 -3 -13 -11 -58 -20 -99 -29 -147 -35 -193 -52
-370 -15 -163 -8 -592 12 -711 2 -13 6 -46 9 -74 47 -409 239 -952 466 -1318
30 -48 60 -95 65 -105 24 -42 133 -191 208 -285 147 -182 310 -348 497 -504
102 -84 305 -233 320 -233 5 0 10 -4 10 -10 0 -5 4 -10 10 -10 5 0 41 -20 80
-45 218 -140 592 -300 895 -385 79 -22 282 -64 360 -76 22 -3 47 -7 55 -9 8
-2 47 -7 85 -11 39 -3 84 -8 100 -10 86 -12 367 -14 412 -3 206 50 350 243
337 453 -11 189 -140 346 -324 396 -25 7 -94 14 -155 15 -147 5 -226 12 -374
36 -178 28 -405 88 -506 133 -16 8 -41 17 -55 21 -40 11 -308 144 -369 183
-85 53 -164 106 -181 119 -281 221 -405 342 -563 552 -92 122 -105 141 -170
253 -169 288 -290 630 -332 938 -3 25 -8 52 -10 60 -23 92 -22 545 1 663 2 12
7 42 10 67 5 40 27 149 40 205 3 11 8 34 11 50 3 17 25 89 49 162 136 409 348
750 655 1053 114 112 117 115 237 207 302 234 684 412 1042 487 92 20 121 25
169 31 30 4 63 8 74 11 89 17 403 23 532 10 152 -15 226 -26 345 -52 1002
-215 1798 -1017 2008 -2024 11 -52 23 -115 26 -140 3 -25 8 -54 10 -65 12 -62
19 -245 21 -515 1 -254 -2 -315 -15 -366 -30 -111 -91 -195 -184 -256 -180
-116 -409 -90 -552 65 -60 65 -84 106 -108 186 -14 47 -16 154 -16 874 0 712
-2 828 -16 881 -51 195 -229 330 -429 325 -89 -2 -155 -22 -227 -69 l-56 -37
-78 50 c-220 140 -449 224 -712 262 -96 13 -385 14 -462 0 -170 -29 -321 -67
-395 -100 -16 -7 -59 -26 -95 -41 -59 -25 -236 -122 -264 -144 -6 -5 -57 -45
-112 -89 -315 -249 -545 -625 -619 -1015 -26 -136 -29 -171 -30 -336 0 -212
13 -315 66 -498 135 -473 469 -868 914 -1083 107 -52 255 -108 325 -123 69
-16 171 -35 220 -42 70 -11 379 -11 445 -1 154 24 327 69 410 107 11 5 45 19
75 32 111 45 330 179 395 241 11 10 34 30 51 43 l30 23 80 -77 c113 -110 201
-174 339 -242 202 -100 383 -141 605 -135 126 3 167 6 230 20 14 3 35 8 48 10
12 3 31 7 42 10 111 24 301 115 424 203 203 146 342 326 458 593 17 38 54 165
63 214 2 17 8 41 12 55 9 35 12 818 3 915 -18 181 -22 220 -25 225 -2 3 -6 30
-10 60 -9 75 -69 337 -98 435 -190 621 -522 1151 -998 1590 -346 319 -790 581
-1244 733 -168 57 -420 119 -555 137 -19 3 -46 7 -60 10 -13 2 -52 7 -86 11
-33 3 -74 8 -90 10 -33 5 -540 14 -546 10z m392 -2637 c296 -59 551 -280 652
-564 185 -518 -145 -1073 -690 -1159 -521 -82 -1000 325 -1005 854 -1 124 25
255 73 365 60 138 198 297 335 386 174 113 425 159 635 118z"/>
</g>
</svg>
